Coordinates
version=1
nRows=21
nColumns=22
inDegrees=yes

Units are S.I. units (second, meters, Newtons, ...)
If the header above contains a line with 'inDegrees', this indicates whether rotational values are in degrees (yes) or radians (no).

endheader
time	pelvis_tilt	pelvis_list	pelvis_rotation	pelvis_tx	pelvis_ty	pelvis_tz	hip_flexion_r	hip_adduction_r	hip_rotation_r	knee_angle_r	ankle_angle_r	subtalar_angle_r	hip_flexion_l	hip_adduction_l	hip_rotation_l	knee_angle_l	ankle_angle_l	subtalar_angle_l	lumbar_extension	lumbar_bending	lumbar_rotation
      1.78000000	     -3.79866389	     -2.06624655	    126.31579265	     -0.50219878	      1.05791724	      0.75782829	     -8.76613304	      6.55189407	     13.45377977	    -15.37176049	     17.05937311	    -12.35880348	     20.85176220	      0.17573018	     10.51672789	    -12.36559315	      6.76652463	     12.19144751	     -5.11792783	     -2.86833066	      4.93851540
      1.79000000	     -3.96248248	     -2.23483805	    125.56687434	     -0.50843410	      1.05653854	      0.75010627	     -8.98969902	      6.19067984	     13.72080070	    -16.00081618	     17.28679190	    -12.45522876	     20.66859788	      0.57014800	     10.90498532	    -11.06364939	      6.88221388	     12.81861566	     -4.99744123	     -3.09186102	      4.83167686
      1.80000000	     -4.08417345	     -2.36705112	    124.84176285	     -0.51468082	      1.05512553	      0.74223886	     -9.21129138	      5.89002340	     14.01849271	    -16.65001440	     17.48980087	    -12.48034039	     20.54242536	      0.91498434	     11.26031924	    -10.13810903	      6.97371587	     13.27314169	     -4.87236280	     -3.26199981	      4.71066718
      1.81000000	     -4.16649489	     -2.48729488	    124.14080479	     -0.52094680	      1.05367694	      0.73422408	     -9.39623206	      5.63284889	     14.30649035	    -17.34660842	     17.66283599	    -12.42951772	     20.50053430	      1.23708313	     11.55652391	     -9.62071734	      6.98366863	     13.48234702	     -4.71802393	     -3.39833905	      4.58196464
      1.82000000	     -4.24920445	     -2.56364456	    123.44386066	     -0.52719565	      1.05229040	      0.72601287	     -9.59371707	      5.40154118	     14.58574692	    -18.09652619	     17.77636931	    -12.22655482	     20.48629473	      1.54874082	     11.78388833	     -9.51636555	      6.95781664	     13.62765934	     -4.59303013	     -3.52736612	      4.47463240
      1.83000000	     -4.32947571	     -2.64318420	    122.76286001	     -0.53344701	      1.05093791	      0.71762670	     -9.75370209	      5.17517373	     14.85129637	    -18.91089773	     17.84039151	    -12.01407054	     20.52240378	      1.88101018	     12.00981512	     -9.77348637	      6.76264868	     13.60036397	     -4.44881806	     -3.67317815	      4.36029117
      1.84000000	     -4.38775667	     -2.70234983	    122.08548253	     -0.53964055	      1.04965073	      0.70908133	     -9.85421913	      4.98659147	     15.08810372	    -19.84226912	     17.82300588	    -11.48991783	     20.59111997	      2.19720256	     12.29332277	    -10.35713954	      6.46549183	     13.34891036	     -4.30263327	     -3.80443419	      4.25900666
      1.85000000	     -4.48600890	     -2.76484161	    121.40384433	     -0.54577935	      1.04849877	      0.70033913	     -9.91228017	      4.77020860	     15.30531000	    -20.88575596	     17.71980086	    -10.97362113	     20.64666128	      2.55481897	     12.65968032	    -11.18313783	      6.01733606	     13.01796312	     -4.16489004	     -3.99788448	      4.14598232
      1.86000000	     -4.59554613	     -2.81254713	    120.72624306	     -0.55183912	      1.04751702	      0.69144859	     -9.91148001	      4.56052338	     15.46235573	    -22.05462784	     17.47567596	    -10.27465513	     20.71076272	      2.92123617	     13.11624069	    -12.24740376	      5.46041947	     12.53321217	     -4.04061727	     -4.21558675	      4.05059726
      1.87000000	     -4.74333922	     -2.85345443	    120.03717273	     -0.55779096	      1.04675580	      0.68239565	     -9.83981572	      4.33305260	     15.59119408	    -23.38203904	     17.06543521	     -9.45025077	     20.75620439	      3.30608923	     13.59118321	    -13.46796649	      4.91033646	     11.97823694	     -3.93676485	     -4.48171938	      3.92496685
      1.88000000	     -4.92710251	     -2.88683959	    119.33463448	     -0.56361013	      1.04623836	      0.67319946	     -9.68025110	      4.09060259	     15.67225690	    -24.88579276	     16.47966795	     -8.44331211	     20.79254604	      3.69722039	     14.01516899	    -14.81162560	      4.45131302	     11.37622034	     -3.85247329	     -4.79551743	      3.80024317
      1.89000000	     -5.14453112	     -2.90612902	    118.60250658	     -0.56925744	      1.04598849	      0.66387463	     -9.41802677	      3.83508877	     15.70873438	    -26.58247431	     15.69254246	     -7.24933374	     20.80546718	      4.07057764	     14.29957531	    -16.21751443	      4.14601500	     10.79532090	     -3.79248200	     -5.14550514	      3.69015407
      1.90000000	     -5.36708003	     -2.89710393	    117.83618106	     -0.57468038	      1.04601781	      0.65442596	     -9.05305751	      3.60162031	     15.73944099	    -28.44916967	     14.61907144	     -5.79479046	     20.78281641	      4.37932525	     14.38748738	    -17.62808346	      4.04784754	     10.23929533	     -3.75592474	     -5.49616285	      3.57591484
      1.91000000	     -5.57421983	     -2.84448337	    117.06369882	     -0.57991212	      1.04633381	      0.64492852	     -8.58804789	      3.41654797	     15.74201901	    -30.46653417	     13.25100173	     -4.03180404	     20.68236091	      4.60813868	     14.34179665	    -18.95409112	      4.14727885	      9.70533448	     -3.75427702	     -5.80649472	      3.42219086
      1.92000000	     -5.77897274	     -2.78842252	    116.21768004	     -0.58484612	      1.04687023	      0.63539698	     -7.97476690	      3.23980653	     15.77855134	    -32.63980346	     11.63512336	     -2.02826045	     20.49893665	      4.76345507	     14.09847003	    -20.11418911	      4.39241246	      9.19178742	     -3.75098160	     -6.11665674	      3.32565976
      1.93000000	     -5.96303015	     -2.72374106	    115.32445597	     -0.58950278	      1.04761278	      0.62591102	     -7.22125292	      3.09365926	     15.84318713	    -34.91746532	      9.77759370	      0.22855934	     20.20795524	      4.84416164	     13.73070888	    -21.05117087	      4.74944513	      8.64887995	     -3.75084263	     -6.39852173	      3.24164818
      1.94000000	     -6.12373957	     -2.66497517	    114.38170081	     -0.59388262	      1.04850402	      0.61652642	     -6.32075771	      2.97651112	     15.95379394	    -37.26148322	      7.75318922	      2.65882694	     19.82078431	      4.85722394	     13.20842508	    -21.75145961	      5.18909094	      8.06823759	     -3.74323323	     -6.65212926	      3.17494026
      1.95000000	     -6.26166668	     -2.61526870	    113.40433821	     -0.59798337	      1.04950906	      0.60730371	     -5.28347863	      2.88816183	     16.08946797	    -39.62226804	      5.68153307	      5.15974930	     19.33767960	      4.81505691	     12.56649526	    -22.20565754	      5.66219521	      7.46453716	     -3.73276096	     -6.87969877	      3.10383526
      1.96000000	     -6.39229613	     -2.58307881	    112.39535328	     -0.60182243	      1.05056859	      0.59826529	     -4.12431120	      2.81252145	     16.24744237	    -41.95999490	      3.74133504	      7.54207967	     18.78788277	      4.73484230	     11.73075563	    -22.45912468	      6.18279714	      6.85600917	     -3.71973313	     -7.09767680	      3.00316594
      1.97000000	     -6.51699532	     -2.55883232	    111.40782715	     -0.60550745	      1.05171202	      0.58945233	     -2.87321325	      2.74541114	     16.35154397	    -44.22225005	      2.04090545	      9.67436249	     18.14231053	      4.64945977	     10.87253581	    -22.48347913	      6.65563566	      6.27282690	     -3.71898468	     -7.29821463	      2.85617352
      1.98000000	     -6.65597693	     -2.54680560	    110.43284391	     -0.60903288	      1.05288055	      0.58085379	     -1.55089282	      2.66491529	     16.41433344	    -46.38316596	      0.78905486	     11.32866348	     17.44687099	      4.57532796	      9.90180432	    -22.36390609	      7.12337649	      5.72631066	     -3.73120123	     -7.50418757	      2.63334275
